<?xml version="1.0" encoding="UTF-8"?>
<svg xmlns="http://www.w3.org/2000/svg" width="865.76" height="682.89" viewBox="0 0 865.76 682.89">
  <ellipse cx="812.58" cy="328.51" rx="25.58" ry="48.85" fill="#cb2d01" opacity="0.21"></ellipse>
  <ellipse cx="360.29" cy="73.4" rx="100.07" ry="57.62" transform="translate(-7.27 83.21) rotate(-13.04)" fill="#cb2d01" opacity="0.21"></ellipse>
  <ellipse cx="212.48" cy="96.5" rx="29.46" ry="23.06" transform="translate(-13.46 38.11) rotate(-9.94)" fill="#cb2d01" opacity="0.21"></ellipse>
  <path d="M807,435.4a65,65,0,0,1-5.64,27c-12.24,27.65-42.23,53.58-68.45,67.66l-581.11.32c-19.05-18.95-34.82-42.24-46.73-68A276.78,276.78,0,0,1,90.37,423,284.41,284.41,0,0,1,80,365.44c-5.58-75.2,19.47-152.24,85.36-198.09,87.23-57.37,212.84,31.34,277.47-61.06,27.66-39.55,35.53-87.21,86.38-90.13C676.05,1,796.37,103.64,778.66,250.21c-2.65,26.77-19.36,58-17.55,85.22a52.36,52.36,0,0,0,1.08,7.82c8,36.86,33,60.4,41.75,80.15A31.8,31.8,0,0,1,807,435.4Z" fill="#cb2d01" opacity="0.21"></path>
  <path d="M369.19,148.85c2.52-8.73.1-17.89-9.92-24.13-10.87-6.77-26.08-6.21-37.12.44-2.5-4.83-7.29-8.93-11.83-11.67a14,14,0,0,0-8.08-2.2c.53-8.53-2.06-17.17-8.19-23.08a27.21,27.21,0,0,0-16.13-7.51c-1.26-6-4.36-11.82-8.62-15.17-4.07-3.2-10.57-5.43-15.92-4.15-7.92-9.62-24.1-11.11-35.81-9.61-16.06,2.06-24.63,11.87-27.52,25.36A15.56,15.56,0,0,0,171.75,79a19.2,19.2,0,0,0-6,17.87,24.93,24.93,0,0,0-21.7,3.28A27,27,0,0,0,134.35,112c-10.73-7.3-26-9.56-37.12-5.67-18,6.35-24.91,21.75-23.66,38.34a10.31,10.31,0,0,0-9.79,2.09c-2.55,2.16-3.67,5.71-3.5,9.23C40,158,24.44,180.44,28.15,200.16c2,10.41,8.7,19.13,18.72,22.86a33.49,33.49,0,0,0,4.06,1.19A36.17,36.17,0,0,0,58,242.77c8.94,11.59,24.23,7.5,34.32-.15a8.27,8.27,0,0,0,6.32,4.06c5.25.74,10.54-2.61,13.58-7.06,2.26,7.95,6.24,15.24,13.76,19.7,7.34,4.35,16.25,3.95,24,.8,3.4,10.23,13.94,19.61,23.16,21.46,15.35,3.09,28.54-6.71,37-19.07a54.49,54.49,0,0,0,37.92,15.76c11.58.08,25.59-5.55,31.62-15.42,6.49,1.18,14.9-1.59,18.88-5.31,3.24-3,5.75-9.33,6.39-15.64a48.66,48.66,0,0,0,22.24-2.05c13.17-4.75,24.59-16.91,27-30.85,11.23-2.54,22.31-12,26-21.47C384.94,175.56,381.23,154.63,369.19,148.85Z" fill="#7cd093" stroke="#002346" stroke-miterlimit="10"></path>
  <path d="M209.23,329.72c4.42-10.43,8.81-20.87,12.89-31.44,10.88-28.13,15.08-59.43,31-85.29l.86-.77c3.52-3,7.11-5.78,10.6-8.7,12.75-4.33,26.41-1.92,39.79-5.07,11.42-2.7,21.57-8.81,27.31-19.27a.34.34,0,0,0-.52-.41c-11.93,11.6-27.38,15.38-43.67,15.42-4.33,0-8.86-.12-13.3.2.71-.8,1.42-1.61,2.09-2.45,6.72-8.4,11.25-18.27,14.91-28.31.59-1.63-1.93-2.25-2.56-.71A76.66,76.66,0,0,1,266,192.84c-8.41,6.94-18.28,11.91-25.47,20.29A45.11,45.11,0,0,0,233,226.22c-1.68-9.84-4.85-19.28-7.69-28.95-.26-.89-.48-1.76-.7-2.63a106.52,106.52,0,0,1-2.06-15.8v0c0-1.39.05-2.78.14-4.16,3.31-13.49,5.55-28.47,17.86-36,9.49-5.81,19.2-8.27,23.89-19.23.43-1-.92-1.89-1.53-.89-7.94,13-26.42,11.5-35.48,23.49a47.94,47.94,0,0,0-6.44,12.28,89.53,89.53,0,0,0-2.18-11.88c-4.14-16-13.68-30.83-11.19-47.9.12-.79-1-1.16-1.22-.34-2.18,10.52-1,20.51,1.71,30.83,3.82,14.73,6.56,28.59,7.13,43.88.46,12.23.89,24.52,4.14,36.4,1.36,5,3,9.77,4.41,14.54.22,1.14.43,2.28.64,3.42a92.88,92.88,0,0,1,1.35,12.66c-1.71,12.65-6.43,25-12,36.67a4.68,4.68,0,0,1-1.63,1.47c-.25.12-.46.18-.69.27-9.23-5.94-16.06-17.22-23.77-24.75s-15.67-15.41-20.68-24.67a46.16,46.16,0,0,1,.15-30.9c6.22-17.89,30-29.3,28.94-49.34-.05-.88-1.44-1.18-1.63-.22-3,15.28-17.21,21-25.75,32.64-1,1.41-2,2.89-2.87,4.39.57-9.66-.71-18.88-5.79-27.64-.38-.66-1.33-.08-1,.59,10.86,22.42-7.37,46.59-3.18,69.46-7.11-5.16-14.36-10.16-20.6-16.41a104.21,104.21,0,0,1-14.27-18.18,144,144,0,0,1-9-21.32c-2.09-6.37-4.86-12.94-11-16.25-.29-.16-.71.18-.48.48,5.89,8,6.74,17.12,10,26.24a58.92,58.92,0,0,0,5.47,11.49A82.46,82.46,0,0,0,126,205.07c-7.34-2.82-15.15-3.37-22.66-5.51a49.83,49.83,0,0,1-28.14-20,.69.69,0,0,0-1.19.69c8.54,14.84,20.56,23.6,37.19,27.58s28.85,13.3,41.63,22.72c20.24,19.1,39.86,38.24,41.28,67.83,1.74,36.31-20.38,66.15-37.82,95.92-16.17,27.59-21.08,90.6-14.94,121.82h68.5C178.16,469.63,190,380.23,209.23,329.72Z" fill="#8c6239" stroke="#0d2445" stroke-miterlimit="10"></path>
  <path d="M810.76,366.22c5.3-4,9.29-9.71,7.1-16.8-1.24-4-4.77-7.09-8.89-8.81a22.31,22.31,0,0,0-.32-10.15c-2.21-9-6.41-18.64-13.82-24.51A23.35,23.35,0,0,0,762,309.52a16.92,16.92,0,0,0-11.37-2,18.28,18.28,0,0,0-11.52,8.23c-9.05-6.06-21.87-6-32.37.61-10.91,6.9-18.25,20.84-16.45,33.27-17.81,8-25.72,39.84-21.32,56.22,4.65,17.3,21,27.9,36.85,26.43,1.59,17,16.85,30.73,36.09,30.56,22.54-.2,39.19-16.4,38.75-36a33.2,33.2,0,0,0,15.49-4c9-4.87,18.73-13.48,21.47-23.69C820.24,389.21,817.06,376.65,810.76,366.22Z" fill="#7cd093" stroke="#002346" stroke-miterlimit="10"></path>
  <path d="M727.46,277.35c-8.09-8.91-20.28-14.76-32.2-16.11a29.87,29.87,0,0,0-6.25-.07c-8.94-18-39.24-33.8-52.73-10.36a16,16,0,0,0-9.83-1c-7.82,1.89-9.29,9.25-7.83,15.93-10.31,1.37-21.67,11.58-25.11,19.94-5.57,13.51-.55,34.4,12.06,42.84-6.16,14.27-1.46,29.71,13,41.17a27.71,27.71,0,0,0,31.5,1.73,17.39,17.39,0,0,0,9,7.26,17,17,0,0,0,12.2-1.12,28.47,28.47,0,0,0,12.38,6.73c14.25,3.65,29.06-3.67,38.64-13.93,12.29-13.14,14.3-32.21,7-45.91C739.92,310.88,741.16,292.43,727.46,277.35Z" fill="#7cd093" stroke="#002346" stroke-miterlimit="10"></path>
  <path d="M809.11,132.33a43.68,43.68,0,0,0-22.69-22.94c-2.3-20.51-14.71-38.53-37.56-40.87-11-1.13-22.55,2.86-30.94,10.11-4-8.09-13-12-21.92-6.84-5.34,3.08-8.45,8.82-9.54,15-17.87-6.53-44.39,12.55-52.67,26.12-9.4,15.41-11.69,41.69-1.14,57.7-4.09,6.63-3.29,16.74.7,24.08,3.28,6,8.33,13,15.57,14a19.21,19.21,0,0,0,9.3-1c2,6.83,6.07,12.94,12.23,16.67a30.28,30.28,0,0,0,26.42,2.15,25.92,25.92,0,0,0,17.86,8.95,20.59,20.59,0,0,0,17-6.81,30.52,30.52,0,0,0,16.92,11.11c13.76,3.44,27.53-5.13,37.29-14.11,12.48-11.48,14.67-25.06,10-41-.23-.79-.47-1.57-.71-2.35C810.35,171.11,817.21,151.49,809.11,132.33Z" fill="#7cd093" stroke="#002346" stroke-miterlimit="10"></path>
  <path d="M781.61,365.72c-8.55,6.32-19.31,9.51-26.67,17.53-1.71-1.07.48.29-1.23-.77,5.74-15.48,11.14-31.06,17-46.53.42-1.09-1.37-1.84-1.89-.79-11.35,23-23.34,45.3-33.35,68.94-2.89,6.84-6.08,13.78-9.27,20.79-.86-7.17-1.73-14.35-2.87-21.46q-2.58-38.32-4.29-76.7-.48-11.06-.86-22.11A83.35,83.35,0,0,1,723,273.43a163.73,163.73,0,0,1,8.18-19c12.47-24.47,29.13-46,35.9-73.07a.71.71,0,0,0-1.37-.37c-4,12.07-10.51,22.78-17.62,33.15.15-11.38-3.68-24.57-5.39-33.54-.13-.67-1.17-.5-1.18.16-.07,8.24.12,16.49.51,24.73v.18a48.18,48.18,0,0,1-8.74,29.42,170.15,170.15,0,0,0-14.12,23.63q-1.18,2.52-2.28,5.09-.37-13.15-.78-26.3c.09-7.51.14-15,.06-22.55,0-2.09,0-4.17,0-6.26.62-12.34.82-24.75,3.1-37,3.74-20.08,14-38.1,17.32-58.14a.76.76,0,0,0-1.47-.4c-3.72,11.77-11.36,21.46-16.24,32.69a103,103,0,0,0-4.46,12.52c-1-12.23-2.49-24.45-4.66-36.62-.11-.62-1-.42-1,.14-1.53,20.75-1.94,41.6-2,62.47A134.76,134.76,0,0,0,699.08,173c-10-13.63-22.56-26.08-34.13-38.37a.25.25,0,0,0-.39.31c6.62,10.24,13.72,20.18,20.56,30.29-8.92-4.36-20-3.06-29.81-3.16a.45.45,0,0,0-.1.89c12.4,2.91,25.42,3.2,34.36,13.06a102,102,0,0,1,9.26,12.35q2,4.44,3.87,9c.56,1.39,1,2.62,1.46,3.74a267.53,267.53,0,0,1,2.53,35c-3.37,41.19-8.15,82.46-11,123.67-2.55-5-5.17-10-8-14.88-2.72-4.67-5.71-9.15-8.87-13.51a2.44,2.44,0,0,0-.52-.71c-13-17.89-28.76-33.89-39.44-53.2-.2-.36-.86-.11-.69.3,5.22,12.57,13.36,23.44,20.35,35.05,1.57,2.61,3.1,5.25,4.65,7.86a44.1,44.1,0,0,0-6.23-3.1c-9.93-3.9-20.67-6.25-30.95-9-.41-.11-.7.51-.3.7,9.64,4.61,19.45,8.86,29.08,13.47a31.16,31.16,0,0,1,4.91,3,68.8,68.8,0,0,1,19,21.75l2.16,3.83q3.23,5.79,6.29,11.66a59.34,59.34,0,0,1,6.68,29.74c-.41,10.26-.65,20.52-.66,30.77-3.34,31.57-2.62,64.11-.78,95.25h50.33c-.17-.4-.34-.84-.51-1.22-3.74-22.27-8.9-44.34-12.52-66.65v0a16.2,16.2,0,0,1,.91-8.47c4.52-11.66,8.7-23.49,13.34-34.66l.07-.18a61.62,61.62,0,0,1,19.85-25.56l2.31-1.76c5.6-4.34,10.2-9.72,15.78-14C782.14,365.94,781.84,365.55,781.61,365.72Z" fill="#8c6239" stroke="#0d2445" stroke-miterlimit="10"></path>
  <rect x="75.68" y="343.13" width="240.36" height="95.48" fill="#e6e6e6" stroke="#0d2445" stroke-linecap="round" stroke-linejoin="round"></rect>
  <polygon points="316.04 438.61 501.37 438.61 501.37 338.74 412.62 203.74 316.04 343.13 316.04 438.61" fill="#fff" stroke="#0d2445" stroke-linecap="round" stroke-linejoin="round"></polygon>
  <rect x="358.84" y="311.3" width="94.39" height="98.78" fill="#f2f2f2" stroke="#0d2445" stroke-linecap="round" stroke-linejoin="round"></rect>
  <rect x="453.23" y="311.3" width="7.68" height="98.78" fill="#e6e6e6" stroke="#0d2445" stroke-linecap="round" stroke-linejoin="round"></rect>
  <polygon points="303.97 350.81 321.7 350.81 410.43 213.62 501.37 350.81 518.52 350.81 411.79 188.04 303.97 350.81" fill="#8ed8f2" stroke="#002346" stroke-miterlimit="10"></polygon>
  <polygon points="303.97 350.81 62.75 350.81 170.62 188.04 411.79 188.04 303.97 350.81" fill="#438dca" stroke="#002346" stroke-miterlimit="10"></polygon>
  <line x1="83.93" y1="350.81" x2="193.67" y2="188.04" fill="none" stroke="#0d2445" stroke-linecap="round" stroke-linejoin="round"></line>
  <line x1="111.37" y1="350.81" x2="221.11" y2="188.04" fill="none" stroke="#0d2445" stroke-linecap="round" stroke-linejoin="round"></line>
  <line x1="145.39" y1="350.81" x2="255.13" y2="188.04" fill="none" stroke="#0d2445" stroke-linecap="round" stroke-linejoin="round"></line>
  <line x1="178.32" y1="350.81" x2="288.05" y2="188.04" fill="none" stroke="#0d2445" stroke-linecap="round" stroke-linejoin="round"></line>
  <line x1="207.95" y1="350.81" x2="317.69" y2="188.04" fill="none" stroke="#0d2445" stroke-linecap="round" stroke-linejoin="round"></line>
  <line x1="241.97" y1="350.81" x2="351.71" y2="188.04" fill="none" stroke="#0d2445" stroke-linecap="round" stroke-linejoin="round"></line>
  <line x1="275.99" y1="350.81" x2="385.73" y2="188.04" fill="none" stroke="#0d2445" stroke-linecap="round" stroke-linejoin="round"></line>
  <rect x="65.26" y="431.48" width="445.59" height="15.37" fill="#e6e6e6" stroke="#0d2445" stroke-linecap="round" stroke-linejoin="round"></rect>
  <rect x="77.88" y="446.29" width="15.37" height="70.24" fill="#fff" stroke="#0d2445" stroke-linecap="round" stroke-linejoin="round"></rect>
  <rect x="253.48" y="446.29" width="15.37" height="70.24" fill="#fff" stroke="#0d2445" stroke-linecap="round" stroke-linejoin="round"></rect>
  <rect x="310.55" y="446.29" width="15.37" height="70.24" fill="#fff" stroke="#0d2445" stroke-linecap="round" stroke-linejoin="round"></rect>
  <rect x="486.16" y="446.29" width="15.37" height="70.24" fill="#fff" stroke="#0d2445" stroke-linecap="round" stroke-linejoin="round"></rect>
  <polygon points="432.38 516.54 420.47 516.54 375.31 403.49 388.65 403.49 403.43 441.7 405.3 446.54 411.49 462.55 413.37 467.39 421.69 488.89 423.56 493.73 432.38 516.54" fill="#fff" stroke="#0d2445" stroke-linecap="round" stroke-linejoin="round"></polygon>
  <polygon points="425.2 403.49 478.93 516.54 490.55 516.54 438.09 403.49 425.2 403.49" fill="#fff" stroke="#0d2445" stroke-linecap="round" stroke-linejoin="round"></polygon>
  <path d="M395,419.74h45.36a2.43,2.43,0,0,1,2.36,1.89h0a2.42,2.42,0,0,1-2.36,3H396.82Z" fill="#f2f2f2" stroke="#0d2445" stroke-linecap="round" stroke-linejoin="round"></path>
  <path d="M460.29,465a2.42,2.42,0,0,1-2.42,2.42h-44.5l-1.88-4.84h46.38a2.42,2.42,0,0,1,2.36,1.89A1.92,1.92,0,0,1,460.29,465Z" fill="#f2f2f2" stroke="#0d2445" stroke-linecap="round" stroke-linejoin="round"></path>
  <path d="M451.51,444.12a2.43,2.43,0,0,1-2.42,2.42H405.3l-1.87-4.84h45.66a2.42,2.42,0,0,1,2.36,1.88A2,2,0,0,1,451.51,444.12Z" fill="#f2f2f2" stroke="#0d2445" stroke-linecap="round" stroke-linejoin="round"></path>
  <path d="M471.26,491.31a2.42,2.42,0,0,1-2.41,2.42h-45.3l-1.86-4.84h47.16a2.42,2.42,0,0,1,2.36,1.89A2.38,2.38,0,0,1,471.26,491.31Z" fill="#f2f2f2" stroke="#0d2445" stroke-linecap="round" stroke-linejoin="round"></path>
  <path d="M825.35,525H53.51a5.07,5.07,0,0,1-5.31-4.77h0a5.07,5.07,0,0,1,5.31-4.78H825.35a5.07,5.07,0,0,1,5.31,4.78h0A5.07,5.07,0,0,1,825.35,525Z" fill="#7cd093" stroke="#002346" stroke-miterlimit="10"></path>
  <path d="M825.35,534.5H53.51a5.07,5.07,0,0,1-5.31-4.77h0A5.07,5.07,0,0,1,53.51,525H825.35a5.07,5.07,0,0,1,5.31,4.78h0A5.07,5.07,0,0,1,825.35,534.5Z" fill="#6fc984" stroke="#002346" stroke-miterlimit="10"></path>
  <path d="M447.46,538.79s-1.95,18.47-6,25.76" fill="none" stroke="#0d2445" stroke-linecap="round" stroke-linejoin="round"></path>
  <path d="M428.51,567.79s17-7.29,34.4,0" fill="none" stroke="#0d2445" stroke-linecap="round" stroke-linejoin="round"></path>
  <path d="M473.38,531.51s-1.95,19.27-6,26.56" fill="none" stroke="#0d2445" stroke-linecap="round" stroke-linejoin="round"></path>
  <path d="M456,560.5a49.45,49.45,0,0,1,31.16,0" fill="none" stroke="#0d2445" stroke-linecap="round" stroke-linejoin="round"></path>
  <path d="M646.41,210.32s21.5-5.78,37.49,13.8,6.05,43.69-19.28,43-31.22-26.58-31.22-26.58Z" fill="#002346" stroke="#002346" stroke-miterlimit="10"></path>
  <path d="M607.35,218.58a25.65,25.65,0,0,1-5.57-20.38c1.25-8.47,5-11.28,5-11.28s-6-11.41,11.1-11,31-1.09,38.61,13.58c4.48,8.64,2.7,27.4,2.7,27.4Z" fill="#002346" stroke="#002346" stroke-miterlimit="10"></path>
  <path d="M618.6,651.34v6.07a13.28,13.28,0,0,1,7.59,3s1.52,2.27,9.87,2.27h14.05a2.11,2.11,0,0,0,2.11-2.27l-.22-3-8.62-7.55-19.46-1.56Z" fill="#fff" stroke="#0d2445" stroke-miterlimit="10"></path>
  <path d="M603.42,646.78l-6.64,2a4.94,4.94,0,0,0-1.72.92l-14.12,11.56a3.78,3.78,0,0,1-2.41.86H560.92a3.81,3.81,0,0,1-3.81-3.8v-1.66h19.72s5.33,0,11.41-7.59c0,0,5.31-6.83,10.62-6.83,0,0,6.84,0,5.32-6.83C608,646,603.42,646.78,603.42,646.78Z" fill="#fff" stroke="#0d2445" stroke-miterlimit="10"></path>
  <path d="M627.11,253.48s-23.58,2.4-30.09,13.39l-16.37,35.28,23.23,10.52,3-9.74,6.45,37.93h60.29l23.21-55.41S682.11,260.19,664.11,252a22.17,22.17,0,0,0-11.84-1.74l-2.79.35Z" fill="#cb2d01" stroke="#0d2445" stroke-miterlimit="10"></path>
  <path d="M610.54,257.36s8.29,40.12-.55,64.09l3.3,19.41V350L554.44,486.58a38.55,38.55,0,0,0-2.24,23.56l18.58,84.26H598.6L593,502.55a11,11,0,0,1,1.93-6.92L621.64,457l.76,145a49.14,49.14,0,0,0,15.18-3s6.83-2.28,10.63-.76l21.41-97.69a161.88,161.88,0,0,0,3.55-26.57l4.64-92.85s-1-33-1.62-46.48c0,0-.74-56-12.08-82.57,0,0-5.17-2.15-7.12-1.83,0,0,5.64,16.26,6.4,28.4,0,0-15.94,9.87-39.47,8.35l-6.3-31.74A56.11,56.11,0,0,0,610.54,257.36Z" fill="#856b0f" stroke="#0d2445" stroke-miterlimit="10"></path>
  <line x1="621.64" y1="457.01" x2="629.61" y2="403.54" fill="none" stroke="#0d2445" stroke-linecap="round" stroke-linejoin="round"></line>
  <path d="M598.86,642.23c-5.31,0-10.62,6.83-10.62,6.83-6.08,7.59-11.41,7.59-11.41,7.59H557.11a9.14,9.14,0,0,1,.76-3.79l14.43-13.67a24.19,24.19,0,0,0,6-13.43,11,11,0,0,0-.73-5.38l-8.26-20.66c-1.52-5.32,1.52-5.32,1.52-5.32H598.6c1.26,25.81,5.58,41,5.58,41C605.7,642.23,598.86,642.23,598.86,642.23Z" fill="#cb2d01" stroke="#0d2445" stroke-miterlimit="10"></path>
  <path d="M623.92,602H620.3l.55,36.19a6.06,6.06,0,0,1-.67,2.9,18.35,18.35,0,0,0-1.58,10.25h4.55s3,6.07,16,6.07H652s1.52-3.79-1.52-6.07l-7.1-7.35s-2.76-2.52-1.25-8.59l7.6-28.85s2.27-6.07-1.52-8.35c0,0-2.28-1.52-10.63.76C637.58,599,630,602,623.92,602Z" fill="#cb2d01" stroke="#0d2445" stroke-miterlimit="10"></path>
  <path d="M606.84,302.93s.95-11.41,2.94-19" fill="none" stroke="#0d2445" stroke-linecap="round" stroke-linejoin="round"></path>
  <path d="M583.94,303.64l-5.57,26.59-16.7,33.4a28,28,0,0,0-9.26,21.43,15.21,15.21,0,0,0,1.09,5.53c1.4,3.51,4.22,8.87,7.41,5.69,0,0,2.19,4.22,5.27,1,0,0,2.32,3.58,4.6-1.73,0,0,3.79,1.52,4.55-4.56l1.52-21.25L592,342.38a103.57,103.57,0,0,0,9.86-30.61Z" fill="#efb0be" stroke="#0d2445" stroke-miterlimit="10"></path>
  <path d="M560.91,379.56s2.28-2.26,6.83,0c0,0,3.93-3.06,5.38,1.89v2.93s2.21,2,.69,4.29c0,0,.76,3.79-2.27,3.79,0,0-4.56,3-6.84-1.52,0,0-5.06,3.05-5.94-1.89,0,0-2.16-3.1,0-5.92C558.76,383.15,557.11,380.31,560.91,379.56Z" fill="#856b0f" stroke="#0d2445" stroke-miterlimit="10"></path>
  <path d="M743.13,329.28,649.7,354.05l-13.83-25.89-1.33-2.48s3-23.53,50.86-33.4c0,0,39.48-9.87,56.18,4.55l.08,1.8Z" fill="#e6e6e6" stroke="#0d2445" stroke-miterlimit="10"></path>
  <path d="M634.54,325.68s3-23.53,50.86-33.4c0,0,39.48-9.87,56.18,4.55l.08,1.8a.79.79,0,0,0,.84-.33,2.44,2.44,0,0,0,.53-2c-2.16-12.42-34.13-12.36-34.13-12.36-46,2.06-64.94,20.28-72.52,27.83a14.38,14.38,0,0,0-2.85,3.94C632.29,318.29,631.44,322.14,634.54,325.68Z" fill="#fff" stroke="#0d2445" stroke-miterlimit="10"></path>
  <path d="M742.7,320.33l-.33-6.8s-9.14-3.79-5.35-6.07c0,0-7.16-4.15-.92-4.73,0,0-10.33-7.82-1.66-7.24,0,0-2.73-5.49,3.34-2.45,0,0,8.35,5.31,8.35,9.11,0,0,1.52,2.84,0,4.08a4.26,4.26,0,0,1,.68,5A8.22,8.22,0,0,1,742.7,320.33Z" fill="#efb0be" stroke="#0d2445" stroke-linecap="round" stroke-linejoin="round"></path>
  <path d="M627.11,244.1v9.38l20.54,12.92a3.06,3.06,0,0,0,2.76.25h0a3.06,3.06,0,0,0,1.87-3.44c-1.42-7.25-5.78-28.56-10.15-39.88L637,218.75Z" fill="#efb0be" stroke="#0d2445" stroke-miterlimit="10"></path>
  <rect x="606.84" y="194.35" width="31.12" height="50.48" rx="15.56" fill="#efb0be" stroke="#0d2445" stroke-miterlimit="10"></rect>
  <line x1="672.95" y1="290.09" x2="672.95" y2="270.93" fill="none" stroke="#0d2445" stroke-linecap="round" stroke-linejoin="round"></line>
  <ellipse cx="696.41" cy="341.66" rx="48.33" ry="17.17" transform="translate(-64.32 189.96) rotate(-14.85)" fill="#fff" stroke="#0d2445" stroke-miterlimit="10"></ellipse>
  <path d="M553.62,376.4s2-1.38,2,1.66v10.87s4.55,2.79,5.31-4.8v-8a5.93,5.93,0,0,0,5.31-2.59" fill="#efb0be" stroke="#0d2445" stroke-linecap="round" stroke-linejoin="round"></path>
  <line x1="560.91" y1="396.28" x2="559.92" y2="391.34" fill="none" stroke="#0d2445" stroke-linecap="round" stroke-linejoin="round"></line>
  <line x1="566.18" y1="397.25" x2="565.64" y2="392.32" fill="none" stroke="#0d2445" stroke-linecap="round" stroke-linejoin="round"></line>
  <line x1="570.78" y1="395.52" x2="570.78" y2="392.89" fill="none" stroke="#0d2445" stroke-linecap="round" stroke-linejoin="round"></line>
  <line x1="734.44" y1="295.49" x2="744.61" y2="301.39" fill="none" stroke="#0d2445" stroke-linecap="round" stroke-linejoin="round"></line>
  <line x1="736.1" y1="302.73" x2="744.61" y2="306.23" fill="none" stroke="#0d2445" stroke-linecap="round" stroke-linejoin="round"></line>
  <line x1="737.02" y1="307.46" x2="744.61" y2="310.97" fill="none" stroke="#0d2445" stroke-linecap="round" stroke-linejoin="round"></line>
  <path d="M643,216.38S626.2,220.31,617,209.5c-6.31-7.43-4.91-11.57-4.91-11.57a18.48,18.48,0,0,0-2.19,2.57,18.85,18.85,0,0,0-2.79,6.06,19.6,19.6,0,0,1-.35-3.42,12.21,12.21,0,0,1,1.38-6.29c2.29-3.82,4.76-3.08,4.76-3.08.67-.8,5.62-6.56,13.76-6.5,9.7.07,14.85,8.36,15.13,8.82l3.93,16.76Z" fill="#002346" stroke="#002346" stroke-miterlimit="10"></path>
  <ellipse cx="642.13" cy="217.13" rx="5.31" ry="6.2" fill="#efb0be" stroke="#0d2445" stroke-miterlimit="10"></ellipse>
  <path d="M507.06,441.46l.93,16.35,1.9,33.53c1.22,22.35-27.94,30.29-27.94,30.29l-6.48,12.15c-3.23,5.66-7.28,2.43-7.28,2.43L461.71,533l-6.48,4.85c-14.58,5.67-17.82-15.38-17.82-15.38-16.19-6.48-25.1-33.2-25.1-33.2-7.29-25.92-14.58-34.82-14.58-34.82a53,53,0,0,0,17-18.63,35.9,35.9,0,0,1,6.63,8.14,44.36,44.36,0,0,1,4,8.44,42.58,42.58,0,0,0,3.11,6.74c8.48,14.74,28.29,18.81,41.4,8,8.13-6.73,13.77-17.6,17.34-30.07,2.5-8.77,6.46-13.42,10.37-15.83h0a16.2,16.2,0,0,1,4.19-1.83,9.45,9.45,0,0,1,11.53,6.34,6.7,6.7,0,0,1,.21.91,13.65,13.65,0,0,1-2,9.83A19.88,19.88,0,0,1,507.06,441.46Z" fill="#cb2d01" stroke="#0d2445" stroke-miterlimit="10"></path>
  <path d="M513.32,425.69a9.45,9.45,0,0,0-11.53-6.34,16.2,16.2,0,0,0-4.19,1.83h0s-3.49-9.68,4.61-10.49c0,0,12.46-1.17,15.95,8.32C518.15,419,520.39,423.68,513.32,425.69Z" fill="#856b0f" stroke="#0d2445" stroke-miterlimit="10"></path>
  <circle cx="505.84" cy="429.72" r="2.02" fill="#002346" stroke="#002346" stroke-miterlimit="10"></circle>
  <path d="M513.73,429.72s4,2.49,4.76,6.71a10,10,0,0,1-7,0S513.93,432.55,513.73,429.72Z" fill="#002346" stroke="#002346" stroke-miterlimit="10"></path>
  <path d="M508,457.81l-.93-16.35a19.88,19.88,0,0,0,4.43-5h0l2.26.57S521.91,456.13,508,457.81Z" fill="#856b0f" stroke="#0d2445" stroke-miterlimit="10"></path>
  <path d="M437.41,473.85H419.54s-4.88,39.82,23.66,47A33.53,33.53,0,0,0,466,518.27c11.11-5.45,26.13-18.68,17.54-49.28" fill="none" stroke="#0d2445" stroke-linecap="round" stroke-linejoin="round"></path>
  <path d="M371,573.65c4.65,18.6,19.3,59.53,24.43,73.65a7.44,7.44,0,0,0,7,4.9h1.92A7.46,7.46,0,0,0,409.6,650l5.92-5.92c34.82,13,54.25-5.67,54.25-5.67L497.1,640a11.23,11.23,0,0,0,5.76-1.14,7.1,7.1,0,0,0,2.58-2.08c1-1.35,1.43-3.22.46-5.82a11.21,11.21,0,0,0-4.63-5.52,70.77,70.77,0,0,0-10-5.13h0a76,76,0,0,0-15-4.5s-.81-8.91-23.48-15.39c0,0-61.55-14.57-70.45-36.44Z" fill="#cb2d01" stroke="#0d2445" stroke-miterlimit="10"></path>
  <path d="M455.2,625.48a33.2,33.2,0,0,1-6.84,6.73A32.07,32.07,0,0,1,401,621.59c-4.1-7.76-5.14-18.5,3.23-32.55l25.2,11" fill="none" stroke="#0d2445" stroke-linecap="round" stroke-linejoin="round"></path>
  <polyline points="460.87 669.2 445.48 666.77 437.37 669.2" fill="none" stroke="#0d2445" stroke-linecap="round" stroke-linejoin="round"></polyline>
  <line x1="430.05" y1="647.95" x2="445.48" y2="666.78" fill="none" stroke="#0d2445" stroke-linecap="round" stroke-linejoin="round"></line>
  <line x1="402.41" y1="652.2" x2="399.42" y2="668.39" fill="none" stroke="#0d2445" stroke-linecap="round" stroke-linejoin="round"></line>
  <polyline points="413.84 669.2 399.42 667.99 389.6 670.01" fill="none" stroke="#0d2445" stroke-linecap="round" stroke-linejoin="round"></polyline>
  <path d="M504.68,637.57s1.7,4.51,0,7.95c0,0-2.61-4.19-5.4-5.64C499.28,639.88,503.14,639.14,504.68,637.57Z" fill="#002346" stroke="#002346" stroke-miterlimit="10"></path>
  <path d="M491.26,620.26a70.77,70.77,0,0,1,10,5.13,11.21,11.21,0,0,1,4.63,5.52c1,2.6.55,4.47-.46,5.82.31.15,7.24,3.25,8-1.92a5.47,5.47,0,0,0-.62-3.36C510.59,627.11,502.51,613.83,491.26,620.26Z" fill="#856b0f" stroke="#0d2445" stroke-miterlimit="10"></path>
  <path d="M499.28,639.88S496.89,648.56,489,648c0,0-6.48,0-6-8.78l14.07.78A8.44,8.44,0,0,1,499.28,639.88Z" fill="#856b0f" stroke="#0d2445" stroke-miterlimit="10"></path>
  <circle cx="500.55" cy="632.76" r="1.62" fill="#002346" stroke="#002346" stroke-miterlimit="10"></circle>
  <path d="M693.31,607.47s-9.72,18.62,9.72,25.1v3.89a2.45,2.45,0,0,0,2.44,2.45h2.19a2.45,2.45,0,0,0,2.44-2.45v-3h4.23v3.86a2.45,2.45,0,0,0,2.45,2.45h0a2.45,2.45,0,0,0,2.44-2.45v-3.86s11.34.73,15.39-14.66h-6.48s-8.91-8.92-15.39-8.51c0,0-1.62-19.83-14.57-16.59C698.17,593.7,690.07,596.13,693.31,607.47Z" fill="#856b0f" stroke="#0d2445" stroke-miterlimit="10"></path>
  <path d="M692.75,600.3s-5.92,1.5-5.92,5.55h6.08A14.48,14.48,0,0,1,692.75,600.3Z" fill="#002346" stroke="#002346" stroke-miterlimit="10"></path>
  <circle cx="698.17" cy="601.8" r="1.62" fill="#002346" stroke="#002346" stroke-miterlimit="10"></circle>
  <path d="M704.88,613.29s-4.85,6.33.66,12.2a12.41,12.41,0,0,0,8.5,3.79c4.63.21,11.5-1.17,14.09-10.48" fill="none" stroke="#0d2445" stroke-linecap="round" stroke-linejoin="round"></path>
  <line x1="716.78" y1="639.77" x2="716.78" y2="645.13" fill="none" stroke="#0d2445" stroke-linecap="round" stroke-linejoin="round"></line>
  <path d="M712.74,645.13a37.42,37.42,0,0,1,8.91.4" fill="none" stroke="#0d2445" stroke-linecap="round" stroke-linejoin="round"></path>
  <line x1="706.5" y1="638.91" x2="706.27" y2="643.91" fill="none" stroke="#0d2445" stroke-linecap="round" stroke-linejoin="round"></line>
  <path d="M700.77,645a19.46,19.46,0,0,1,10.06-1.11" fill="none" stroke="#0d2445" stroke-linecap="round" stroke-linejoin="round"></path>
  <path d="M352.15,615.78s8.22,15.77-8.23,21.25v3.3a2.07,2.07,0,0,1-2.07,2.07H340a2.07,2.07,0,0,1-2.07-2.07v-2.54h-3.58v3.27a2.07,2.07,0,0,1-2.07,2.07h0a2.07,2.07,0,0,1-2.07-2.07v-3.27s-9.6.62-13-12.41h5.48s7.55-7.56,13-7.21c0,0,1.37-16.79,12.34-14C348,604.13,354.89,606.18,352.15,615.78Z" fill="#856b0f" stroke="#0d2445" stroke-miterlimit="10"></path>
  <path d="M352.62,609.71s5,1.27,5,4.7h-5.15A12.09,12.09,0,0,0,352.62,609.71Z" fill="#002346" stroke="#002346" stroke-miterlimit="10"></path>
  <circle cx="348.03" cy="610.98" r="1.37" fill="#002346" stroke="#002346" stroke-miterlimit="10"></circle>
  <path d="M342.35,620.71s4.11,5.36-.56,10.33a10.53,10.53,0,0,1-7.19,3.21c-3.93.18-9.75-1-11.94-8.87" fill="none" stroke="#0d2445" stroke-linecap="round" stroke-linejoin="round"></path>
  <line x1="332.28" y1="643.13" x2="332.28" y2="647.67" fill="none" stroke="#0d2445" stroke-linecap="round" stroke-linejoin="round"></line>
  <path d="M335.69,647.67a31.71,31.71,0,0,0-7.54.33" fill="none" stroke="#0d2445" stroke-linecap="round" stroke-linejoin="round"></path>
  <line x1="340.98" y1="642.4" x2="341.18" y2="646.63" fill="none" stroke="#0d2445" stroke-linecap="round" stroke-linejoin="round"></line>
  <path d="M345.83,647.58a16.49,16.49,0,0,0-8.52-1" fill="none" stroke="#0d2445" stroke-linecap="round" stroke-linejoin="round"></path>
  <circle cx="559.41" cy="404.64" r="1.31" fill="#856b0f" stroke="#0d2445" stroke-miterlimit="10"></circle>
  <circle cx="566.4" cy="413.37" r="1.31" fill="#856b0f" stroke="#0d2445" stroke-miterlimit="10"></circle>
  <circle cx="564.65" cy="444.81" r="1.31" fill="#856b0f" stroke="#0d2445" stroke-miterlimit="10"></circle>
  <circle cx="574.25" cy="431.71" r="1.31" fill="#856b0f" stroke="#0d2445" stroke-miterlimit="10"></circle>
  <circle cx="538.45" cy="473.62" r="1.31" fill="#856b0f" stroke="#0d2445" stroke-miterlimit="10"></circle>
  <circle cx="551.55" cy="461.4" r="1.31" fill="#856b0f" stroke="#0d2445" stroke-miterlimit="10"></circle>
  <circle cx="546.31" cy="443.06" r="1.31" fill="#856b0f" stroke="#0d2445" stroke-miterlimit="10"></circle>
  <circle cx="507.31" cy="661.68" r="1.4" fill="#856b0f" stroke="#0d2445" stroke-miterlimit="10"></circle>
  <circle cx="562.9" cy="431.71" r="1.31" fill="#856b0f" stroke="#0d2445" stroke-miterlimit="10"></circle>
  <circle cx="553.3" cy="424.72" r="1.31" fill="#856b0f" stroke="#0d2445" stroke-miterlimit="10"></circle>
  <path d="M816.08,489.77c-4.64,18.6-19.3,59.53-24.43,73.65a7.44,7.44,0,0,1-7,4.9h-1.93a7.44,7.44,0,0,1-5.26-2.18l-5.92-5.92c-34.83,13-54.26-5.67-54.26-5.67L690,556.06a11.16,11.16,0,0,1-5.77-1.13,7.18,7.18,0,0,1-2.58-2.08c-1-1.35-1.43-3.22-.45-5.82a11.16,11.16,0,0,1,4.63-5.52,68.63,68.63,0,0,1,10-5.13h0a75.52,75.52,0,0,1,15-4.5s.81-8.91,23.49-15.39c0,0,61.54-14.58,70.45-36.44Z" fill="#cb2d01" stroke="#0d2445" stroke-miterlimit="10"></path>
  <path d="M731.87,541.59a33.17,33.17,0,0,0,6.83,6.74,32.08,32.08,0,0,0,47.41-10.62c4.1-7.76,5.14-18.5-3.23-32.56l-25.2,11" fill="none" stroke="#0d2445" stroke-linecap="round" stroke-linejoin="round"></path>
  <polyline points="726.2 585.32 741.58 582.89 749.7 585.32" fill="none" stroke="#0d2445" stroke-linecap="round" stroke-linejoin="round"></polyline>
  <line x1="757.02" y1="564.07" x2="741.58" y2="582.89" fill="none" stroke="#0d2445" stroke-linecap="round" stroke-linejoin="round"></line>
  <line x1="784.66" y1="568.32" x2="787.65" y2="584.51" fill="none" stroke="#0d2445" stroke-linecap="round" stroke-linejoin="round"></line>
  <polyline points="773.22 585.32 787.65 584.11 797.46 586.13" fill="none" stroke="#0d2445" stroke-linecap="round" stroke-linejoin="round"></polyline>
  <path d="M682.38,553.69s-1.7,4.51,0,7.95c0,0,2.61-4.19,5.4-5.64C687.78,556,683.92,555.26,682.38,553.69Z" fill="#002346" stroke="#002346" stroke-miterlimit="10"></path>
  <path d="M695.81,536.38a68.63,68.63,0,0,0-10,5.13,11.16,11.16,0,0,0-4.63,5.52c-1,2.6-.56,4.47.45,5.82-.31.15-7.23,3.24-8-1.92a5.53,5.53,0,0,1,.63-3.36C676.47,543.22,684.55,530,695.81,536.38Z" fill="#856b0f" stroke="#0d2445" stroke-miterlimit="10"></path>
  <path d="M687.78,556s2.4,8.68,10.28,8.07c0,0,6.49,0,6-8.78l-14.06.77A8.61,8.61,0,0,0,687.78,556Z" fill="#856b0f" stroke="#0d2445" stroke-miterlimit="10"></path>
  <circle cx="686.52" cy="548.88" r="1.62" fill="#002346" stroke="#002346" stroke-miterlimit="10"></circle>
  <path d="M114.65,518.64c4.64,18.6,19.3,59.53,24.43,73.65a7.44,7.44,0,0,0,7,4.9H148a7.44,7.44,0,0,0,5.27-2.18l5.91-5.92c34.83,13,54.26-5.66,54.26-5.66l27.32,1.51a11.34,11.34,0,0,0,5.77-1.13,7.4,7.4,0,0,0,2.58-2.08c1-1.36,1.43-3.23.46-5.83a11.21,11.21,0,0,0-4.64-5.51,69.49,69.49,0,0,0-10-5.14h0a76,76,0,0,0-15-4.5s-.81-8.91-23.48-15.38c0,0-61.55-14.58-70.46-36.44Z" fill="#cb2d01" stroke="#0d2445" stroke-miterlimit="10"></path>
  <path d="M198.86,570.47a33.46,33.46,0,0,1-6.83,6.74,32.08,32.08,0,0,1-47.41-10.62c-4.1-7.76-5.14-18.5,3.23-32.56l25.2,11" fill="none" stroke="#0d2445" stroke-linecap="round" stroke-linejoin="round"></path>
  <polyline points="204.53 614.2 189.15 611.77 181.04 614.2" fill="none" stroke="#0d2445" stroke-linecap="round" stroke-linejoin="round"></polyline>
  <line x1="173.71" y1="592.95" x2="189.15" y2="611.77" fill="none" stroke="#0d2445" stroke-linecap="round" stroke-linejoin="round"></line>
  <line x1="146.07" y1="597.19" x2="143.08" y2="613.39" fill="none" stroke="#0d2445" stroke-linecap="round" stroke-linejoin="round"></line>
  <polyline points="157.51 614.2 143.08 612.98 133.27 615.01" fill="none" stroke="#0d2445" stroke-linecap="round" stroke-linejoin="round"></polyline>
  <path d="M248.35,582.56s1.7,4.52,0,8c0,0-2.61-4.2-5.4-5.64C243,584.88,246.81,584.13,248.35,582.56Z" fill="#002346" stroke="#002346" stroke-miterlimit="10"></path>
  <path d="M234.92,565.25a69.49,69.49,0,0,1,10,5.14,11.21,11.21,0,0,1,4.64,5.51c1,2.6.55,4.47-.46,5.83.31.14,7.23,3.24,8-1.93a5.49,5.49,0,0,0-.63-3.36C254.26,572.1,246.18,558.82,234.92,565.25Z" fill="#856b0f" stroke="#0d2445" stroke-miterlimit="10"></path>
  <path d="M243,584.88s-2.39,8.68-10.28,8.07c0,0-6.48,0-6-8.79l14.06.78A8.61,8.61,0,0,1,243,584.88Z" fill="#856b0f" stroke="#0d2445" stroke-miterlimit="10"></path>
  <circle cx="244.21" cy="577.76" r="1.62" fill="#002346" stroke="#002346" stroke-miterlimit="10"></circle>
  <path d="M464.24,126.87s-18.11,3-17.35,3.77,152.9,0,152.9,0-1.76-14.31-17.32-6c1.12-2.91-.72-21.56-21.09-12.3.2-11.73-19.87-32.57-37.9-3.51,0,0-12.8-25.35-24.85,2.26,0,0-12.55-4.27-19.33,9C479.3,120.09,470,116.33,464.24,126.87Z" fill="#fff" stroke="#0d2445" stroke-miterlimit="10"></path>
  <path d="M528.23,185.57s-4,10.49-11.38,15.19c-.57-.9-3.86.52-3.58,1.56-8.5,2.22-18.87-2-18.87-2,6.47,6.95,19.58,5.15,19.58,5.15L511.05,208a10.41,10.41,0,0,0,6.22-.26h0a7.7,7.7,0,0,0,.83-.36h0a10.4,10.4,0,0,0,4.42-4.38l-3.87.39S528.92,195,528.23,185.57Zm295.09,65.7s-6.38,3-11.8,1.9c.13-.66-2-1.45-2.31-.86-4.82-2.71-7.67-9.17-7.67-9.17-.11,6,6.63,10.9,6.63,10.9l-2.46-.11a6.55,6.55,0,0,0,2.94,2.6h0a3.75,3.75,0,0,0,.53.19h0a6.51,6.51,0,0,0,3.93,0l-1.94-1.53S819.49,255.85,823.32,251.27Zm-458-223.34s-13.22,8.74-25.61,8c.1-1.51-4.85-2.59-5.4-1.17-11.57-4.48-20-17.92-20-17.92C316.06,30.16,332.6,39,332.6,39l-5.49.53a14.67,14.67,0,0,0,7.35,4.85h0c.41.11.83.2,1.25.28h0a14.63,14.63,0,0,0,8.7-1.37l-4.78-2.76S358.3,39.34,365.36,27.93Z" fill="#cb2d01"></path>
</svg>
